<svg width="349" height="338" viewBox="0 0 349 338" fill="none" xmlns="http://www.w3.org/2000/svg">
<path d="M63.958 70.3094C61.0164 70.3094 58.1408 69.4392 55.6949 67.8087C53.249 66.1783 51.3427 63.8608 50.217 61.1495C49.0913 58.4381 48.7967 55.4546 49.3706 52.5763C49.9445 49.6979 51.361 47.054 53.4411 44.9788C55.5211 42.9036 58.1713 41.4904 61.0564 40.9179C63.9415 40.3453 66.9321 40.6392 69.6498 41.7623C72.3675 42.8853 74.6904 44.7872 76.3247 47.2273C77.959 49.6675 78.8313 52.5363 78.8313 55.4711C78.8313 59.4065 77.2643 63.1806 74.475 65.9634C71.6857 68.7461 67.9027 70.3094 63.958 70.3094ZM63.958 41.1449C61.1178 41.1449 58.3414 41.9851 55.9798 43.5594C53.6182 45.1336 51.7776 47.3712 50.6907 49.989C49.6038 52.6069 49.3194 55.4875 49.8735 58.2667C50.4276 61.0458 51.7953 63.5986 53.8036 65.6022C55.812 67.6059 58.3708 68.9704 61.1564 69.5232C63.9421 70.076 66.8295 69.7923 69.4536 68.7079C72.0776 67.6236 74.3204 65.7872 75.8984 63.4312C77.4763 61.0752 78.3186 58.3052 78.3186 55.4717C78.3186 53.5902 77.9471 51.7272 77.2254 49.989C76.5038 48.2508 75.446 46.6714 74.1125 45.3411C72.779 44.0107 71.1959 42.9554 69.4536 42.2354C67.7113 41.5154 65.8439 41.1449 63.958 41.1449Z" fill="#194D4D"/>
<path d="M214.728 70.3094C211.786 70.3094 208.91 69.4392 206.464 67.8087C204.019 66.1783 202.112 63.8608 200.986 61.1495C199.861 58.4381 199.566 55.4546 200.14 52.5763C200.714 49.6979 202.131 47.054 204.211 44.9788C206.291 42.9036 208.941 41.4904 211.826 40.9179C214.711 40.3453 217.702 40.6392 220.419 41.7623C223.137 42.8853 225.46 44.7872 227.094 47.2273C228.728 49.6675 229.601 52.5363 229.601 55.4711C229.601 59.4065 228.034 63.1806 225.245 65.9634C222.455 68.7461 218.672 70.3094 214.728 70.3094ZM214.728 41.1449C211.887 41.1449 209.111 41.9851 206.749 43.5594C204.388 45.1336 202.547 47.3712 201.46 49.989C200.373 52.6069 200.089 55.4875 200.643 58.2667C201.197 61.0458 202.565 63.5986 204.573 65.6022C206.581 67.6059 209.14 68.9704 211.926 69.5232C214.712 70.076 217.599 69.7923 220.223 68.7079C222.847 67.6236 225.09 65.7872 226.668 63.4312C228.246 61.0752 229.088 58.3052 229.088 55.4717C229.088 53.5902 228.717 51.7272 227.995 49.989C227.273 48.2508 226.215 46.6714 224.882 45.3411C223.548 44.0107 221.965 42.9554 220.223 42.2354C218.481 41.5154 216.613 41.1449 214.728 41.1449Z" fill="#194D4D"/>
<path d="M269.183 35.8705H10.0865C5.04261 35.8791 0.955148 40.9169 0.948242 47.1345V170.37C0.955148 176.587 5.04261 181.623 10.0865 181.634H269.183C274.227 181.626 278.314 176.588 278.321 170.37V47.1339C278.314 40.9169 274.227 35.882 269.183 35.8705Z" fill="white"/>
<path d="M269.183 35.8705H10.0865C5.04261 35.8791 0.955148 40.9169 0.948242 47.1345V170.37C0.955148 176.587 5.04261 181.623 10.0865 181.634H269.183C274.227 181.626 278.314 176.588 278.321 170.37V47.1339C278.314 40.9169 274.227 35.882 269.183 35.8705ZM277.247 170.37C277.241 175.856 273.635 180.302 269.184 180.309H10.0865C5.63531 180.302 2.03008 175.856 2.02318 170.37V47.1339C2.02836 41.6478 5.63531 37.2019 10.0865 37.1956H269.183C273.634 37.2025 277.239 41.6478 277.246 47.1339L277.247 170.37Z" fill="#194D4D"/>
<path d="M65.9748 85.4365H19.9383V117.586H65.9748V85.4365Z" fill="#EBEBEB"/>
<path d="M130.426 85.4365H84.3894V117.586H130.426V85.4365Z" fill="#EBEBEB"/>
<path d="M194.877 85.4365H148.84V117.586H194.877V85.4365Z" fill="#EBEBEB"/>
<path d="M259.328 85.4365H213.292V117.586H259.328V85.4365Z" fill="#EBEBEB"/>
<path d="M65.9748 132.513H19.9383V164.663H65.9748V132.513Z" fill="#EBEBEB"/>
<path d="M130.426 132.513H84.3894V164.663H130.426V132.513Z" fill="#EBEBEB"/>
<path d="M194.877 132.513H148.84V164.663H194.877V132.513Z" fill="#EBEBEB"/>
<path d="M259.328 132.513H213.292V164.663H259.328V132.513Z" fill="#EBEBEB"/>
<path d="M99.7245 164.476L88.857 149.503L91.8172 147.365L100.136 158.826L131.968 126.198L134.587 128.741L99.7245 164.476Z" fill="url(#paint0_linear_415_762)"/>
<path d="M64.154 0.429871H63.3674V55.5383H64.154V0.429871Z" fill="#141414"/>
<path d="M215.499 0.429871H214.712V55.5383H215.499V0.429871Z" fill="#141414"/>
<path d="M221.885 145.323H223.275V107.366C223.275 101.539 225.598 95.9515 229.732 91.8316C233.866 87.7116 239.473 85.3971 245.319 85.3971H326.009C331.855 85.3971 337.462 87.7116 341.596 91.8316C345.73 95.9515 348.053 101.539 348.053 107.366V315.601C348.053 318.486 347.482 321.343 346.375 324.009C345.267 326.674 343.643 329.096 341.596 331.136C339.549 333.176 337.119 334.794 334.445 335.898C331.77 337.002 328.904 337.57 326.009 337.57H245.319C242.424 337.57 239.558 337.002 236.883 335.898C234.209 334.794 231.779 333.176 229.732 331.136C227.685 329.096 226.061 326.674 224.953 324.009C223.846 321.343 223.275 318.486 223.275 315.601V172.342H221.885V145.323Z" fill="#194D4D"/>
<path d="M244.429 91.113H254.961C254.477 92.2964 254.292 93.5804 254.423 94.8518C254.554 96.1232 254.996 97.343 255.712 98.4038C256.427 99.4646 257.393 100.334 258.525 100.935C259.656 101.536 260.919 101.851 262.201 101.851H308.429C309.712 101.851 310.974 101.536 312.106 100.935C313.238 100.334 314.204 99.4647 314.919 98.4039C315.635 97.343 316.077 96.1231 316.208 94.8516C316.339 93.5802 316.154 92.2961 315.67 91.1126H325.508C329.874 91.1127 334.061 92.8412 337.148 95.9178C340.235 98.9944 341.969 103.167 341.969 107.518V315.448C341.969 319.799 340.235 323.972 337.148 327.049C334.061 330.126 329.874 331.854 325.508 331.854H244.429C240.063 331.854 235.876 330.126 232.788 327.049C229.701 323.972 227.967 319.799 227.967 315.448V107.518C227.967 103.167 229.701 98.9941 232.788 95.9174C235.876 92.8407 240.063 91.113 244.429 91.113Z" fill="white"/>
<path d="M298.979 149.364H270.959C269.103 149.364 267.598 150.864 267.598 152.714V154.37C267.598 156.22 269.103 157.719 270.959 157.719H298.979C300.835 157.719 302.34 156.22 302.34 154.37V152.714C302.34 150.864 300.835 149.364 298.979 149.364Z" fill="url(#paint1_linear_415_762)"/>
<path d="M300.633 185.266H269.304C267.448 185.266 265.944 186.765 265.944 188.615V190.272C265.944 192.122 267.448 193.621 269.304 193.621H300.633C302.489 193.621 303.994 192.122 303.994 190.272V188.615C303.994 186.765 302.489 185.266 300.633 185.266Z" fill="#EBEBEB"/>
<path d="M324.07 203.215H245.867C244.011 203.215 242.507 204.714 242.507 206.564V208.221C242.507 210.07 244.011 211.57 245.867 211.57H324.07C325.926 211.57 327.431 210.07 327.431 208.221V206.564C327.431 204.714 325.926 203.215 324.07 203.215Z" fill="#EBEBEB"/>
<path d="M324.07 221.162H245.867C244.011 221.162 242.507 222.662 242.507 224.511V226.168C242.507 228.018 244.011 229.517 245.867 229.517H324.07C325.926 229.517 327.431 228.018 327.431 226.168V224.511C327.431 222.662 325.926 221.162 324.07 221.162Z" fill="#EBEBEB"/>
<path d="M284.906 301.786C298.347 301.786 309.242 290.928 309.242 277.533C309.242 264.138 298.347 253.28 284.906 253.28C271.466 253.28 260.57 264.138 260.57 277.533C260.57 290.928 271.466 301.786 284.906 301.786Z" fill="url(#paint2_linear_415_762)"/>
<path d="M282.3 287.798C282.004 287.799 281.711 287.741 281.438 287.628C281.165 287.515 280.917 287.35 280.708 287.141L272.993 279.034C272.57 278.613 272.333 278.042 272.333 277.447C272.333 276.852 272.57 276.281 272.993 275.86C273.415 275.439 273.988 275.203 274.585 275.203C275.182 275.203 275.755 275.439 276.177 275.86L282.3 282.38L293.617 267.334C294.039 266.913 294.612 266.677 295.209 266.677C295.807 266.677 296.379 266.913 296.802 267.334C297.224 267.755 297.461 268.326 297.461 268.921C297.461 269.516 297.224 270.087 296.802 270.508L283.892 287.141C283.683 287.35 283.435 287.515 283.162 287.628C282.889 287.741 282.596 287.799 282.3 287.798Z" fill="#EBEBEB"/>
<defs>
<linearGradient id="paint0_linear_415_762" x1="0.948242" y1="169" x2="348.053" y2="169" gradientUnits="userSpaceOnUse">
<stop stop-color="#679D38"/>
<stop offset="1" stop-color="#C3BE2D"/>
</linearGradient>
<linearGradient id="paint1_linear_415_762" x1="0.948242" y1="169" x2="348.053" y2="169" gradientUnits="userSpaceOnUse">
<stop stop-color="#679D38"/>
<stop offset="1" stop-color="#C3BE2D"/>
</linearGradient>
<linearGradient id="paint2_linear_415_762" x1="0.948242" y1="169" x2="348.053" y2="169" gradientUnits="userSpaceOnUse">
<stop stop-color="#679D38"/>
<stop offset="1" stop-color="#C3BE2D"/>
</linearGradient>
</defs>
</svg>
